<?xml version="1.0" encoding="UTF-8"?>
<svg id="Layer_1" xmlns="http://www.w3.org/2000/svg" version="1.1" viewBox="0 0 1024 959">
  <!-- Generator: Adobe Illustrator 30.2.1, SVG Export Plug-In . SVG Version: 2.1.1 Build 1)  -->
  <defs>
    <style>
      .st0 {
        fill: #774c1d;
      }

      .st1 {
        fill: #fff;
      }
    </style>
  </defs>
  <path class="st0" d="M568,39.1C614.9,38.6,608.3-.4,558.1,0c-58.6.2-208.9,44.3-267.8,91.2-79.8,63.9-161.2,170.9-161.2,170.9,0,0-26.2,37.9-61.4,54.3,0,0-93.6,55.5-60.7,88.9,32.9,33,58.9,56.8,97.3,18.7,38.4-38,31.6-76.8,56.1-101.4,24.5-24.6,61.1-27.5,112.5-17.7,51.4,9.8,239.8,54.3,239.8,54.3,0,0,72.5-21.2,27.5-45.7s-173.9-46.8-173.9-46.8c0,0-40-20.2-11.1-31.8,28.7-11.6,208.5-29.6,344.4,18.9,134.1,48,223.5,144.6,231.2,108.7,7.1-34.1-83.4-93.2-172.6-129.6-68.9-28.4-23-64.1,105.2,26.1,35.2,24.8,64.6-4.3,35.9-37.3-25.4-29.1-75.3-60.3-158.2-90.2-207.1-73.7-367.6-7.5-345.7-33.9,15.7-18.7,122.5-57.7,172.6-58.4v-.2Z"/>
  <path class="st1" d="M764,242.5c-12.5-12.1-25.9-23.2-39.3-33-4.6-3.4-9.3-6.6-13.9-9.6-59.6-40-127.7-60.2-203.9-61.1h-4.6c-60.5,0-115.7,12.1-165.9,36.4-33,16.1-63.9,37.5-92.7,64.1-1.2,1.1-2.1,2.1-3.4,3.2-72.7,69.1-108.9,152.7-108.9,250.1s36.2,181,108.9,250.3c30.7,29.3,63.9,52.3,100.2,69.1,24.8,11.8,51.2,20.5,78.7,26.2,26.4,5.7,54.1,8.4,83,8.4s68.4-4.1,99.8-12.3c17.1-4.3,33.9-10,49.8-16.8,40.9-17.1,78-42.1,112.1-74.6,72.7-69.3,108.9-152.7,108.9-250.3s-36.2-181-108.9-250.1ZM582.1,583.5c-22,21.6-48.6,32.1-79.8,32.1s-57.8-10.5-80-32.1c-22.1-21.4-33-47.3-33-77.5s10.9-55.9,33-77.3c22.1-21.6,48.7-32.1,80-32.1s57.8,10.5,79.8,32.1c22.1,21.4,33,47.3,33,77.3s-10.9,56.1-33,77.5Z"/>
  <path class="st0" d="M260.7,682.6c-71.6-39.6-98.7-77.8-120.5-99.3-38.9-38.7-55.3,10.2-33.9,36.4,21.8,26.2,67.1,72,108.2,96.6,40.9,24.5,120,54.3,138.2,59.8,18.2,5.5,31.2,31.1-3.2,37.9-56.1,10.9-113.9-27-157.5-58.4-43.6-31.4-82.8-79.3-106.9-104.6-24.1-25.4-58.4,0-37.3,30.4,21.1,30.4,89.4,138.2,219.1,177.6,129.6,39.5,272.1,5.9,294.4-3.6,22.3-9.3,141.8-56.6,92.5-13.9-49.3,43-116.2,74.8-116.2,74.8,0,0-51.1,58.4,22.5,37.3,73.6-21.1,161.8-62.1,218.5-130.2,57.1-67.7,49.8-116.4,65.9-138.2,15.9-21.8,25.5-33.6,44.5-40.9,18.9-7.3,74.1-8,100-34.1,25.9-26.1,55.2-65.2,16.6-101.8-38.4-36.6-70.5,7.1-79.8,17.7-9.3,10.5-63.4,84.1-165.5,64.6-18.2-3.6-213.2-42-244.8-37.9-31.6,4.3-35.7,32.7-2.5,37,21.2,2.9,61.4,16.6,123,29.1,119.8,23.9-8.4,124.8-115,126-69.8,1.4-161.4-7.5-260.3-62.5h.2Z"/>
</svg>