<svg xmlns="http://www.w3.org/2000/svg" width="1024" height="959" viewBox="0 0 1024 959" fill="none"><path d="M567.964 39.1026C614.92 38.567 608.314 -0.354637 558.144 0.00244197C499.583 0.180981 349.253 44.2803 290.335 91.2361C210.528 155.153 129.114 262.098 129.114 262.098C129.114 262.098 102.869 299.949 67.6965 316.374C67.6965 316.374 -25.8581 371.9 6.99315 405.287C39.8444 438.317 65.9111 462.063 104.297 424.034C142.683 386.005 135.899 347.262 160.358 322.623C184.818 297.985 221.419 295.128 272.838 304.948C324.258 314.767 512.617 359.224 512.617 359.224C512.617 359.224 585.104 337.978 540.112 313.518C495.12 289.058 366.214 266.74 366.214 266.74C366.214 266.74 326.222 246.565 355.145 234.96C383.89 223.355 563.679 205.323 699.548 253.885C833.631 301.913 923.079 398.502 930.756 362.616C937.898 328.515 847.378 269.418 758.108 232.996C689.192 204.609 735.077 168.901 863.268 259.063C898.44 283.88 927.899 254.778 899.155 221.748C873.802 192.646 823.811 161.402 740.969 131.586C533.863 57.8492 373.356 124.087 395.316 97.6635C411.028 78.9169 517.794 39.9953 567.964 39.2812V39.1026Z" fill="#8B8B8B"></path><path d="M764 242.459C751.503 230.318 738.112 219.248 724.722 209.429C720.08 206.037 715.438 202.823 710.795 199.788C651.163 159.795 583.14 139.62 506.903 138.727H502.261C441.737 138.727 386.568 150.868 336.398 175.149C303.368 191.218 272.481 212.642 243.736 239.245C242.487 240.316 241.594 241.387 240.344 242.459C167.679 311.553 131.435 395.11 131.435 492.592C131.435 590.075 167.679 673.631 240.344 742.905C271.053 772.185 304.261 795.217 340.505 811.999C365.322 823.783 391.746 832.531 419.241 838.245C445.664 843.958 473.338 846.636 502.261 846.636C537.255 846.636 570.642 842.53 602.065 834.317C619.205 830.032 635.987 824.318 651.877 817.534C692.763 800.394 729.899 775.399 764 742.905C836.666 673.631 872.909 590.253 872.909 492.592C872.909 394.931 836.666 311.553 764 242.459ZM582.069 583.469C560.108 605.072 533.506 615.606 502.261 615.606C471.017 615.606 444.415 605.072 422.276 583.469C400.137 562.044 389.246 536.156 389.246 505.983C389.246 475.81 400.137 450.1 422.276 428.675C444.415 407.072 471.017 396.538 502.261 396.538C533.506 396.538 560.108 407.072 582.069 428.675C604.207 450.1 615.098 475.988 615.098 505.983C615.098 535.977 604.207 562.044 582.069 583.469Z" fill="black"></path><path d="M260.697 682.621C189.103 642.985 161.965 604.777 140.183 583.353C101.262 544.61 84.836 593.53 106.261 619.775C128.043 646.02 173.391 691.726 214.456 716.365C255.341 740.824 334.434 770.64 352.645 776.175C370.856 781.71 383.89 807.241 349.431 814.026C293.37 824.917 235.523 787.066 191.96 755.643C148.396 724.22 109.117 676.372 85.0145 651.019C60.9116 625.667 26.6321 651.019 47.6998 681.371C68.7674 711.723 137.148 819.56 266.768 859.018C396.387 898.475 538.862 864.909 561.179 855.447C583.497 846.163 702.94 798.85 653.663 841.521C604.386 884.549 537.433 916.329 537.433 916.329C537.433 916.329 486.371 974.711 559.929 953.643C633.488 932.576 721.686 891.512 778.462 823.488C835.594 755.822 828.274 707.081 844.343 685.299C860.233 663.517 869.874 651.733 888.799 644.413C907.724 637.093 962.893 636.379 988.781 610.312C1014.67 584.245 1043.95 545.145 1005.39 508.545C966.999 471.944 934.862 515.686 925.578 526.22C916.294 536.754 862.197 610.312 760.072 590.851C741.861 587.281 546.896 548.895 515.295 553.001C483.693 557.286 479.587 585.674 512.795 589.959C534.041 592.815 574.213 606.563 635.809 619.061C755.609 642.985 627.417 743.86 520.829 745.109C451.02 746.538 359.43 737.611 260.519 682.621H260.697Z" fill="#8B8B8B"></path></svg>